<?xml version="1.0" encoding="UTF-8" standalone="no"?>
<svg
   width="16"
   height="16"
   fill="none"
   viewBox="0 0 24 24"
   xmlns="http://www.w3.org/2000/svg"
   xmlns:svg="http://www.w3.org/2000/svg">
  <path
     d="M 13.5,2.5 V 8 c 0,0.2761424 0.223858,0.5 0.5,0.5 h 5.5 z"
     fill="#AAA" />
  <path
     d="m 12,2 v 6 c 0,1.1045695 0.895431,2 2,2 h 6 v 10 c 0,1.104569 -0.89543,2 -2,2 H 8.5863838 C 13.253124,18.932627 9.073383,12.441283 3.991062,15.121476 L 4,4 C 4.0008877,2.8954309 4.8954305,2 6,2 Z"
     fill="#BBB" />
  <path
     d="m 10.197496,12.193344 c -5.6452138,-3.5931303 -2.8226067,-1.796565 0,0 z m 0,6.400265 c 0,2.046446 -1.7376204,3.705415 -3.8810843,3.705415 -2.143464,0 -3.8810849,-1.658969 -3.8810849,-3.705415 0,-2.046446 1.7376209,-3.705415 3.8810849,-3.705415 2.1434639,0 3.8810843,1.658969 3.8810843,3.705415 z"
     fill="#CCC"/>
</svg>
