<svg width="16"
     height="16"
     fill="none"
     viewBox="0 0 24 24"
     xmlns="http://www.w3.org/2000/svg">
  <path d="M 13.5,2.5 V 8 c 0,0.2761424 0.223858,0.5 0.5,0.5 h 5.5 z"
        fill="#AAA" />
  <path d="M12 2v6a2 2 0 0 0 2 2h6v10a2 2 0 0 1-2 2h-6.81A6.5 6.5 0 0 0 4 11.498V4a2 2 0 0 1 2-2h6Z"
        fill="#BBB" />
  <path d="M 12,8 C 4,2.6666667 8,5.3333333 12,8 Z m 0,9.5 c 0,3.037568 -2.4624339,5.499998 -5.5,5.499998 -3.0375661,0 -5.5,-2.46243 -5.5,-5.499998 0,-3.037568 2.4624339,-5.499998 5.5,-5.499998 3.0375661,0 5.5,2.46243 5.5,5.499998 z"
        fill="#CCC" />
</svg>