<svg width="16"
     height="16"
     fill="none"
     viewBox="0 0 24 24"
     xmlns="http://www.w3.org/2000/svg">
      <path d="m 8.207,4 c 0.46,0 0.908,0.141 1.284,0.402 L 9.647,4.522 11.75,6.273 8.687,8.826 8.602,8.887 C 8.513732,8.942065 8.4149723,8.978163 8.312,8.993 L 8.206,9 2,8.999 V 6.25 C 1.9998547,5.0670225 2.9157967,4.0859682 4.096,4.005 L 4.25,4 Z"
            fill="#AAA" />
      <path d="m 13.821,6.5 h 5.929 c 1.122371,-3.676e-4 2.073365,0.8264718 2.229,1.938 L 21.995,8.596 22,8.75 v 9 c 1.45e-4,1.182977 -0.915797,2.164032 -2.096,2.245 L 19.75,20 H 4.25 C 3.0670225,20.000145 2.0859682,19.084203 2.005,17.904 L 2,17.75 V 10.499 L 8.207,10.5 8.403,10.491 c 0.3907199,-0.03394 0.7657828,-0.169416 1.088,-0.393 l 0.156,-0.12 z"
            fill="#CCC" />

</svg>