<svg width="16"
     height="16"
     fill="none"
     viewBox="0 0 24 24"
     xmlns="http://www.w3.org/2000/svg">
  <path
     d="m 8.207,4 c 0.46,0 0.908,0.141 1.284,0.402 L 9.647,4.522 11.75,6.273 8.687,8.826 8.602,8.887 C 8.513732,8.942065 8.4149723,8.978163 8.312,8.993 L 8.206,9 2,8.999 V 6.25 C 1.9998547,5.0670225 2.9157967,4.0859682 4.096,4.005 L 4.25,4 Z"
     fill="#AAA"/>
  <path
     d="m 19.75,6.5 c 1.122371,-3.676e-4 2.073365,0.8264718 2.229,1.938 0.124536,2.664311 0.06712,5.681085 0.115987,8.005931 -2.538751,-8.0758642 -14.0676498,-4.572128 -11.13774,3.58276 L 4.25,20 C 3.0670225,20.000145 2.0859682,19.084203 2.005,17.904 L 2,17.75 V 10.499 L 8.207,10.5 8.403,10.491 C 8.7937199,10.45706 9.1687828,10.321584 9.491,10.098 L 9.647,9.978 13.821,6.5 Z"
     fill="#BBB"/>
  <path
     d="m 21.783641,8.0949868 c -8,-5.3333333 -4,-2.6666667 0,0 z m 0,9.5000002 c 0,3.037568 -2.462434,5.499998 -5.5,5.499998 -3.037566,0 -5.5,-2.46243 -5.5,-5.499998 0,-3.037568 2.462434,-5.499998 5.5,-5.499998 3.037566,0 5.5,2.46243 5.5,5.499998 z"
     fill="#CCC"/>
</svg>
