<?xml version="1.0" encoding="UTF-8" standalone="no"?>
<svg
   width="16"
   height="16"
   fill="none"
   viewBox="0 0 24 24"
   version="1.1"
   xmlns="http://www.w3.org/2000/svg"
   xmlns:svg="http://www.w3.org/2000/svg">
  <path
     d="M2 6.25A2.25 2.25 0 0 1 4.25 4h3.956a2.25 2.25 0 0 1 1.438.52l2.381 1.98h5.725A2.25 2.25 0 0 1 20 8.75v.752H6.422a2.25 2.25 0 0 0-2.183 1.705l-1.923 7.7c.043-.171 0 .005 0 0a2.24 2.24 0 0 1-.32-1.158L2 6.25Z"
     fill="#AAA"/>
  <path
     d="m 3.745,19.379 c -0.078678,0.315451 -0.3557397,0.386535 -0.030625,0.386625 l 11.478448,0.08261 C 11.700531,14.992551 18.702249,10.83887 21.93091,14.911636 L 21.931,11.624 c 0.07946,-0.315801 -0.159356,-0.622073 -0.485,-0.622 H 6.422 C 6.0777313,11.001808 5.7775425,11.236022 5.694,11.57 l -1.949,7.81 z"
     fill="#BBB" />
     <path
        d="m 22.452831,17.323778 c 0,2.046446 -1.737621,3.705415 -3.881085,3.705415 -2.143464,0 -3.881085,-1.658969 -3.881085,-3.705415 0,-2.046446 1.737621,-3.705415 3.881085,-3.705415 2.143464,0 3.881085,1.658969 3.881085,3.705415 z"
        fill="#CCC"/>
</svg>
