<?xml version="1.0" encoding="UTF-8" standalone="no"?>
<svg
   width="16"
   height="16"
   fill="none"
   viewBox="0 0 24 24"
   version="1.1"
   xmlns="http://www.w3.org/2000/svg"
   xmlns:svg="http://www.w3.org/2000/svg">
  <path
     d="m 8.207,4 c 0.46,0 0.908,0.141 1.284,0.402 L 9.647,4.522 11.75,6.273 8.687,8.826 8.602,8.887 C 8.513732,8.942065 8.4149723,8.978163 8.312,8.993 L 8.206,9 2,8.999 V 6.25 C 1.9998547,5.0670225 2.9157967,4.0859682 4.096,4.005 L 4.25,4 Z"
     fill="#AAA"/>
  <path
     d="m 19.75,6.5 c 1.122371,-3.676e-4 2.073365,0.8264718 2.229,1.938 L 21.995,8.596 22,8.75 l -0.01172,6.290718 c -3.140334,-4.371379 -10.446431,0.123961 -6.53499,4.954311 L 4.25,20 C 3.0670225,20.000145 2.0859682,19.084203 2.005,17.904 L 2,17.75 V 10.499 L 8.207,10.5 8.403,10.491 C 8.7937199,10.45706 9.1687828,10.321584 9.491,10.098 L 9.647,9.978 13.821,6.5 Z"
     fill="#BBB"/>
  <path
     d="m 22.452831,10.923513 c -5.645214,-3.5931294 -2.822607,-1.7965641 0,0 z m 0,6.400265 c 0,2.046446 -1.737621,3.705415 -3.881085,3.705415 -2.143464,0 -3.881085,-1.658969 -3.881085,-3.705415 0,-2.046446 1.737621,-3.705415 3.881085,-3.705415 2.143464,0 3.881085,1.658969 3.881085,3.705415 z"
     fill="#CCC" />
</svg>
